<svg version="1.1" id="Layer_1" xmlns="http://www.w3.org/2000/svg" xmlns:xlink="http://www.w3.org/1999/xlink" x="0px" y="0px"
	 width="100%" viewBox="0 0 512 512" enable-background="new 0 0 512 512" xml:space="preserve">
<path fill="#000000" opacity="1.000000" stroke="none" 
	d="
M513.000000,16.000004 
	C513.000000,181.592712 513.000000,347.185425 513.000000,513.000000 
	C359.309326,513.000000 205.618546,513.000000 51.207687,512.682434 
	C51.641384,510.206970 53.083569,508.152740 53.902370,505.874451 
	C59.412708,490.542358 62.429726,474.790741 62.111118,458.404022 
	C62.037369,454.610779 63.369705,450.790253 64.406876,446.792999 
	C68.305298,446.069214 71.843002,445.151001 75.400024,445.068787 
	C88.447281,444.767242 100.090675,449.152405 110.836800,456.283569 
	C126.505920,466.681732 142.021133,477.325012 157.917984,487.363312 
	C176.223343,498.922485 196.687561,504.167358 218.100082,504.809326 
	C230.773849,505.189240 243.508514,503.744080 256.208374,502.993958 
	C271.650330,502.081879 286.704529,498.942444 301.387604,494.219727 
	C331.830139,484.428192 358.447144,468.738098 379.534912,444.114349 
	C393.894928,427.346466 404.836975,408.696594 412.990723,388.324402 
	C421.577087,366.871246 427.323486,344.629700 430.883362,321.386108 
	C432.624084,306.497589 434.572601,292.045197 435.879608,277.535004 
	C436.975006,265.374451 437.616913,253.153717 437.917877,240.946274 
	C438.229797,228.295532 437.889893,215.628708 437.902466,202.508469 
	C437.030701,175.257782 439.544006,148.854706 446.916046,122.599022 
	C447.266632,121.623413 447.626129,121.060669 447.794464,120.445610 
	C454.526611,95.847939 464.550903,72.653412 477.660980,50.802555 
	C482.665649,42.461113 487.974548,34.302197 493.100403,26.024982 
	C493.055969,25.989868 492.985596,26.078569 493.252625,26.003485 
	C493.719727,25.628359 493.919800,25.328316 494.443604,24.887585 
	C500.844849,21.831266 506.922424,18.915636 513.000000,16.000004 
M465.007050,365.561584 
	C465.992432,361.984650 467.453400,358.455353 467.818176,354.816193 
	C468.130188,351.703644 467.892212,348.146179 466.633942,345.355194 
	C464.626709,340.903046 459.569763,340.941223 456.265442,342.352783 
	C453.543274,343.515747 451.194489,347.294342 450.188934,350.401947 
	C447.362335,359.137177 445.508026,368.181732 442.898071,376.994080 
	C440.843781,383.930328 438.180359,390.684082 435.890991,397.553406 
	C433.747009,403.986481 435.529510,409.137909 440.316040,410.777924 
	C445.419342,412.526428 450.289398,410.099426 452.444183,403.972565 
	C456.823486,391.520538 460.832092,378.938202 465.007050,365.561584 
z"/>
<path fill="#000000" opacity="1.000000" stroke="none" 
	d="
M1.000000,457.000000 
	C1.000000,305.068207 1.000000,153.136398 1.000000,1.000000 
	C166.690689,1.000000 332.381470,1.000000 498.780884,1.321897 
	C497.695953,2.752905 495.978973,4.017231 494.096466,4.945971 
	C481.737000,11.043636 469.341797,17.068863 456.539154,23.070564 
	C454.209503,23.349245 452.304382,23.711754 450.387543,23.995054 
	C436.720215,26.015015 423.092316,28.392223 409.370514,29.929119 
	C393.742920,31.679472 378.050018,33.015839 362.349945,33.901470 
	C347.313263,34.749687 332.230957,34.789257 316.701050,35.107269 
	C270.794312,36.557003 226.689484,44.943249 183.650970,60.861961 
	C163.034897,67.669205 144.106903,77.179733 125.856956,88.054802 
	C101.006767,102.862907 79.344650,121.560913 59.611977,143.063385 
	C55.878036,147.390518 52.220261,151.406845 49.069645,155.787903 
	C38.860310,169.984375 30.351471,185.081345 23.782475,201.383575 
	C15.632876,221.608368 11.260508,242.603348 10.153687,264.188049 
	C9.180408,283.168518 9.742219,302.250916 13.104334,321.018829 
	C15.853919,336.367462 18.216297,352.015198 23.253361,366.670044 
	C30.673359,388.257782 40.318577,409.080719 48.977386,430.608398 
	C48.267624,433.661865 47.808971,436.415710 46.849773,438.982544 
	C46.221977,440.662537 45.211441,442.814728 43.781815,443.472992 
	C37.728909,446.260132 31.504602,448.701385 25.249125,451.015503 
	C17.404720,453.917328 8.118920,451.068451 1.000000,457.000000 
M117.785995,59.945141 
	C120.421883,59.863205 123.422287,60.577614 125.632561,59.565872 
	C137.154068,54.291981 148.523911,48.676891 159.842163,42.973404 
	C164.740128,40.505222 165.876556,36.235512 163.564316,31.055372 
	C161.802582,27.108574 157.025146,24.952148 152.558334,26.932568 
	C140.701141,32.189594 128.804459,37.432949 117.341766,43.475277 
	C110.766396,46.941353 110.168922,55.212078 117.785995,59.945141 
M58.474281,84.017311 
	C57.291950,84.873001 56.087639,85.700111 54.931164,86.589409 
	C50.398102,90.075272 49.542271,96.313744 53.006721,100.476845 
	C56.808090,105.044807 61.700909,104.996239 66.663399,100.909698 
	C74.202721,94.701202 82.117882,88.946121 89.596466,82.668533 
	C92.158508,80.517921 94.707230,77.667809 95.795341,74.614578 
	C97.217857,70.623016 95.169952,67.080246 91.335709,64.891846 
	C87.505959,62.706017 83.795113,63.922409 80.797264,66.159058 
	C73.354614,71.711922 66.237534,77.701141 58.474281,84.017311 
z"/>
<path fill="#639085" opacity="1.000000" stroke="none" 
	d="
M1.000000,457.449982 
	C8.118920,451.068451 17.404720,453.917328 25.249125,451.015503 
	C31.504602,448.701385 37.728909,446.260132 43.781815,443.472992 
	C45.211441,442.814728 46.221977,440.662537 46.849773,438.982544 
	C47.808971,436.415710 48.267624,433.661865 49.209290,430.317810 
	C57.274422,405.209869 66.663330,381.422699 78.749336,358.763947 
	C83.672462,349.534088 88.881119,340.456543 94.208160,331.057465 
	C110.280396,308.591736 125.568459,285.968842 142.116241,264.308319 
	C153.192932,249.809311 166.058685,236.677078 178.399811,222.772263 
	C179.638138,221.695923 180.633636,220.812729 181.558105,219.860550 
	C206.579468,194.088669 233.154724,170.037369 261.446289,147.901840 
	C274.252869,137.881882 287.193604,128.033386 300.402069,118.010178 
	C301.165771,117.671913 301.629852,117.471092 302.031860,117.183502 
	C343.054077,87.836510 385.963562,61.542648 430.411102,37.727406 
	C439.313660,32.957363 448.111908,27.992682 456.958252,23.117735 
	C469.341797,17.068863 481.737000,11.043636 494.096466,4.945971 
	C495.978973,4.017231 497.695953,2.752905 499.244751,1.321897 
	C503.593750,1.000000 508.187500,1.000000 513.000000,1.000000 
	C513.000000,5.683425 513.000000,10.369049 513.000000,15.527340 
	C506.922424,18.915636 500.844849,21.831266 494.227112,25.032108 
	C493.453186,25.571068 493.219391,25.824816 492.985596,26.078568 
	C492.985596,26.078569 493.055969,25.989868 492.713104,25.995718 
	C485.138245,29.305500 477.639343,32.131279 470.719299,35.994045 
	C436.053986,55.344112 401.237976,74.455688 367.093567,94.694778 
	C348.411194,105.768738 330.954224,118.910019 312.651794,131.271622 
	C309.896637,133.126862 307.310638,134.676758 304.991211,136.555725 
	C280.449249,156.437073 255.575699,175.933670 231.583878,196.460068 
	C217.975723,208.102646 205.831909,221.456741 192.742233,234.211456 
	C190.676147,236.349930 188.955414,238.374298 187.107651,240.275192 
	C166.073898,261.913574 147.220627,285.363251 129.846512,309.985077 
	C123.052246,319.613617 117.146339,329.868988 110.564011,340.040466 
	C107.441879,344.922241 104.507736,349.553711 101.755318,354.290802 
	C87.684242,378.507843 76.364967,403.986633 67.441269,430.506989 
	C65.666519,435.781372 65.151146,441.479523 64.055031,446.982269 
	C63.369705,450.790253 62.037369,454.610779 62.111118,458.404022 
	C62.429726,474.790741 59.412708,490.542358 53.902370,505.874451 
	C53.083569,508.152740 51.641384,510.206970 50.743805,512.682434 
	C47.307091,513.000000 43.614182,513.000000 39.718403,512.679565 
	C38.336147,509.800446 36.452999,507.334473 36.101704,504.666809 
	C34.730240,494.252228 31.761316,484.602234 22.681986,478.459320 
	C15.796642,473.800781 8.251529,470.117340 0.999996,466.000000 
	C1.000000,463.299988 1.000000,460.599976 1.000000,457.449982 
z"/>
<path fill="#000000" opacity="1.000000" stroke="none" 
	d="
M0.999996,466.468658 
	C8.251529,470.117340 15.796642,473.800781 22.681986,478.459320 
	C31.761316,484.602234 34.730240,494.252228 36.101704,504.666809 
	C36.452999,507.334473 38.336147,509.800446 39.257767,512.679565 
	C26.398888,513.000000 13.797775,513.000000 1.000000,513.000000 
	C1.000000,497.646332 1.000000,482.291809 0.999996,466.468658 
z"/>
<path fill="#00AD97" opacity="1.000000" stroke="none" 
	d="
M64.406891,446.792999 
	C65.151146,441.479523 65.666519,435.781372 67.441269,430.506989 
	C76.364967,403.986633 87.684242,378.507843 101.755318,354.290802 
	C104.507736,349.553711 107.441879,344.922241 110.910973,340.209412 
	C152.085861,355.582977 194.193253,364.158752 237.348831,366.743103 
	C262.531158,368.251099 287.796448,367.140686 312.901245,363.180176 
	C350.417603,357.261597 385.936096,345.765686 419.243195,327.471069 
	C423.004059,325.405334 426.952026,323.680267 430.813202,321.797211 
	C427.323486,344.629700 421.577087,366.871246 412.990723,388.324402 
	C404.836975,408.696594 393.894928,427.346466 379.534912,444.114349 
	C358.447144,468.738098 331.830139,484.428192 301.387604,494.219727 
	C286.704529,498.942444 271.650330,502.081879 256.208374,502.993958 
	C243.508514,503.744080 230.773849,505.189240 218.100082,504.809326 
	C196.687561,504.167358 176.223343,498.922485 157.917984,487.363312 
	C142.021133,477.325012 126.505920,466.681732 110.836800,456.283569 
	C100.090675,449.152405 88.447281,444.767242 75.400024,445.068787 
	C71.843002,445.151001 68.305298,446.069214 64.406891,446.792999 
z"/>
<path fill="#53BDAD" opacity="1.000000" stroke="none" 
	d="
M430.883362,321.386108 
	C426.952026,323.680267 423.004059,325.405334 419.243195,327.471069 
	C385.936096,345.765686 350.417603,357.261597 312.901245,363.180176 
	C287.796448,367.140686 262.531158,368.251099 237.348831,366.743103 
	C194.193253,364.158752 152.085861,355.582977 111.182770,340.007812 
	C117.146339,329.868988 123.052246,319.613617 129.846512,309.985077 
	C147.220627,285.363251 166.073898,261.913574 187.107651,240.275192 
	C188.955414,238.374298 190.676147,236.349930 193.083557,234.374298 
	C214.629395,239.986374 236.028915,243.005280 257.565155,243.745636 
	C274.438629,244.325714 291.436218,243.303543 308.292847,241.935654 
	C340.996002,239.281860 372.505341,231.166397 402.853546,218.775330 
	C414.691772,213.941818 426.184814,208.262817 437.835083,202.968933 
	C437.889893,215.628708 438.229797,228.295532 437.917877,240.946274 
	C437.616913,253.153717 436.975006,265.374451 435.879608,277.535004 
	C434.572601,292.045197 432.624084,306.497589 430.883362,321.386108 
z"/>
<path fill="#00AD97" opacity="1.000000" stroke="none" 
	d="
M437.902466,202.508484 
	C426.184814,208.262817 414.691772,213.941818 402.853546,218.775330 
	C372.505341,231.166397 340.996002,239.281860 308.292847,241.935654 
	C291.436218,243.303543 274.438629,244.325714 257.565155,243.745636 
	C236.028915,243.005280 214.629395,239.986374 193.369919,234.202850 
	C205.831909,221.456741 217.975723,208.102646 231.583878,196.460068 
	C255.575699,175.933670 280.449249,156.437073 304.991211,136.555725 
	C307.310638,134.676758 309.896637,133.126862 312.987305,131.470016 
	C336.249207,135.377274 358.923492,136.996445 381.944611,135.200958 
	C404.086609,133.474060 425.596985,129.136169 446.835785,122.987495 
	C439.544006,148.854706 437.030701,175.257782 437.902466,202.508484 
z"/>
<path fill="#53BDAD" opacity="1.000000" stroke="none" 
	d="
M446.916046,122.599022 
	C425.596985,129.136169 404.086609,133.474060 381.944611,135.200958 
	C358.923492,136.996445 336.249207,135.377274 313.280182,131.317459 
	C330.954224,118.910019 348.411194,105.768738 367.093567,94.694778 
	C401.237976,74.455688 436.053986,55.344112 470.719299,35.994045 
	C477.639343,32.131279 485.138245,29.305500 492.757507,26.030834 
	C487.974548,34.302197 482.665649,42.461113 477.660980,50.802555 
	C464.550903,72.653412 454.526611,95.847939 447.794464,120.445610 
	C447.626129,121.060669 447.266632,121.623413 446.916046,122.599022 
z"/>
<path fill="#F4CD1E" opacity="1.000000" stroke="none" 
	d="
M465.000244,365.985596 
	C460.832092,378.938202 456.823486,391.520538 452.444183,403.972565 
	C450.289398,410.099426 445.419342,412.526428 440.316040,410.777924 
	C435.529510,409.137909 433.747009,403.986481 435.890991,397.553406 
	C438.180359,390.684082 440.843781,383.930328 442.898071,376.994080 
	C445.508026,368.181732 447.362335,359.137177 450.188934,350.401947 
	C451.194489,347.294342 453.543274,343.515747 456.265442,342.352783 
	C459.569763,340.941223 464.626709,340.903046 466.633942,345.355194 
	C467.892212,348.146179 468.130188,351.703644 467.818176,354.816193 
	C467.453400,358.455353 465.992432,361.984650 465.000244,365.985596 
z"/>
<path fill="#53BDAD" opacity="1.000000" stroke="none" 
	d="
M493.252625,26.003483 
	C493.219391,25.824816 493.453186,25.571068 493.903442,25.172798 
	C493.919800,25.328316 493.719727,25.628359 493.252625,26.003483 
z"/>
<path fill="#74E1C5" opacity="1.000000" stroke="none" 
	d="
M178.123871,222.933243 
	C166.058685,236.677078 153.192932,249.809311 142.116241,264.308319 
	C125.568459,285.968842 110.280396,308.591736 93.928856,330.847290 
	C91.256676,328.575470 88.905876,326.419128 86.999039,323.923553 
	C65.182030,295.370178 56.550087,262.133850 54.273727,227.144974 
	C52.896194,205.971634 53.219112,184.633942 56.991943,163.548203 
	C58.214401,156.716064 58.957813,149.798233 59.920345,142.919601 
	C79.344650,121.560913 101.006767,102.862907 125.856956,88.054802 
	C144.106903,77.179733 163.034897,67.669205 183.675354,61.261276 
	C183.738998,62.650997 183.524216,63.813759 183.047501,64.856804 
	C169.301880,94.931374 163.513550,126.378395 165.892654,159.440002 
	C167.453766,181.134323 171.532242,202.253204 178.123871,222.933243 
z"/>
<path fill="#25C3AA" opacity="1.000000" stroke="none" 
	d="
M178.399811,222.772263 
	C171.532242,202.253204 167.453766,181.134323 165.892654,159.440002 
	C163.513550,126.378395 169.301880,94.931374 183.047501,64.856804 
	C183.524216,63.813759 183.738998,62.650997 184.051483,61.144718 
	C226.689484,44.943249 270.794312,36.557003 316.643372,35.469971 
	C316.720032,36.847012 316.471588,37.825432 316.041077,38.715816 
	C303.906464,63.811516 298.658936,90.288368 300.073456,118.107117 
	C287.193604,128.033386 274.252869,137.881882 261.446289,147.901840 
	C233.154724,170.037369 206.579468,194.088669 181.558105,219.860550 
	C180.633636,220.812729 179.638138,221.695923 178.399811,222.772263 
z"/>
<path fill="#25C3AA" opacity="1.000000" stroke="none" 
	d="
M59.611977,143.063385 
	C58.957813,149.798233 58.214401,156.716064 56.991943,163.548203 
	C53.219112,184.633942 52.896194,205.971634 54.273727,227.144974 
	C56.550087,262.133850 65.182030,295.370178 86.999039,323.923553 
	C88.905876,326.419128 91.256676,328.575470 93.680565,331.099548 
	C88.881119,340.456543 83.672462,349.534088 78.749336,358.763947 
	C66.663330,381.422699 57.274422,405.209869 49.247894,429.938812 
	C40.318577,409.080719 30.673359,388.257782 23.253361,366.670044 
	C18.216297,352.015198 15.853919,336.367462 13.104334,321.018829 
	C9.742219,302.250916 9.180408,283.168518 10.153687,264.188049 
	C11.260508,242.603348 15.632876,221.608368 23.782475,201.383575 
	C30.351471,185.081345 38.860310,169.984375 49.069645,155.787903 
	C52.220261,151.406845 55.878036,147.390518 59.611977,143.063385 
z"/>
<path fill="#74E1C5" opacity="1.000000" stroke="none" 
	d="
M300.402069,118.010178 
	C298.658936,90.288368 303.906464,63.811516 316.041077,38.715816 
	C316.471588,37.825432 316.720032,36.847012 317.111023,35.546928 
	C332.230957,34.789257 347.313263,34.749687 362.349945,33.901470 
	C378.050018,33.015839 393.742920,31.679472 409.370514,29.929119 
	C423.092316,28.392223 436.720215,26.015015 450.387543,23.995054 
	C452.304382,23.711754 454.209503,23.349245 456.539154,23.070572 
	C448.111908,27.992682 439.313660,32.957363 430.411102,37.727406 
	C385.963562,61.542648 343.054077,87.836510 302.031860,117.183502 
	C301.629852,117.471092 301.165771,117.671913 300.402069,118.010178 
z"/>
<path fill="#F6AB27" opacity="1.000000" stroke="none" 
	d="
M117.432343,59.764263 
	C110.168922,55.212078 110.766396,46.941353 117.341766,43.475277 
	C128.804459,37.432949 140.701141,32.189594 152.558334,26.932568 
	C157.025146,24.952148 161.802582,27.108574 163.564316,31.055372 
	C165.876556,36.235512 164.740128,40.505222 159.842163,42.973404 
	C148.523911,48.676891 137.154068,54.291981 125.632561,59.565872 
	C123.422287,60.577614 120.421883,59.863205 117.432343,59.764263 
z"/>
<path fill="#F6AB27" opacity="1.000000" stroke="none" 
	d="
M58.731987,83.766205 
	C66.237534,77.701141 73.354614,71.711922 80.797264,66.159058 
	C83.795113,63.922409 87.505959,62.706017 91.335709,64.891846 
	C95.169952,67.080246 97.217857,70.623016 95.795341,74.614578 
	C94.707230,77.667809 92.158508,80.517921 89.596466,82.668533 
	C82.117882,88.946121 74.202721,94.701202 66.663399,100.909698 
	C61.700909,104.996239 56.808090,105.044807 53.006721,100.476845 
	C49.542271,96.313744 50.398102,90.075272 54.931164,86.589409 
	C56.087639,85.700111 57.291950,84.873001 58.731987,83.766205 
z"/>
</svg>