<?xml version="1.0" encoding="UTF-8"?>
<svg id="Logo" xmlns="http://www.w3.org/2000/svg" viewBox="0 0 927.87 816.1">
  <defs>
    <style>
      .cls-1 {
        font-family: Preuksa-SemiBold, Preuksa;
        font-size: 110.55px;
        font-weight: 600;
      }

      .cls-1, .cls-2 {
        fill: #fff;
      }

      .cls-3 {
        letter-spacing: -.03em;
      }
    </style>
  </defs>
  <g id="Logo_verticale_2" data-name="Logo verticale 2">
    <text class="cls-1" transform="translate(121.59 666.92)"><tspan x="0" y="0">Ca</tspan><tspan class="cls-3" x="141.94" y="0">r</tspan><tspan x="188.15" y="0">eSharing</tspan></text>
  </g>
  <g>
    <path class="cls-2" d="M482.29,253.81c0,11.41-9.25,20.66-20.66,20.66s-20.66-9.25-20.66-20.66,9.25-20.66,20.66-20.66,20.66,9.25,20.66,20.66ZM484.36,317.99c5.31-19.03,19.65-35.4,23.1-42.81,7.23-15.55,9.49-33.06,5.07-49.64-1.36-5.07-3.32-10.13-6.19-14-1.04-1.39-3.25-.69-3.23,1.05.1,7.5-.1,22.44-2.9,32.33-6.38,22.51-18.23,36.51-39.04,37.29-20.81-.78-32.66-14.78-39.04-37.29-2.8-9.89-3-24.84-2.9-32.33.03-1.75-2.18-2.45-3.23-1.05-2.88,3.87-4.83,8.93-6.19,14-4.42,16.57-2.51,34.25,5.07,49.64.89,1.83,10.14,19.14,15.91,36.42,0,0,15.51,40.65,30.48,79.26l23.07-72.87ZM558.04,324.38c-7.88-8.25-20.95-8.55-29.2-.68-8.25,7.88-8.55,20.95-.68,29.2,7.88,8.25,20.95,8.55,29.2.68,8.25-7.88,8.55-20.95.68-29.2ZM510.25,420.33c14.42-20.76,29.87-28.77,42.1-32.87,2.46-.82,2.61-.66,5.22-1.65,16.69-6.35,30.47-15.96,39.4-30.61,2.73-4.48,5.04-9.4,5.85-14.15.29-1.72-1.75-2.83-2.99-1.61-5.35,5.25-16.3,15.42-25.39,20.23-20.69,10.93-39,12.03-53.93-2.48-13.8-15.59-11.86-33.83.02-53.99,5.22-8.86,15.89-19.32,21.38-24.42,1.28-1.19.26-3.27-1.47-3.06-4.78.59-9.8,2.67-14.4,5.19-15.04,8.25-26.51,21.84-32.4,37.94-.71,1.91-1.36,3.87-1.94,5.86-6.78,24.52-13.87,50.32-23.67,76.35-4.95,13.15-11.7,30.84-24.33,52.18-14.7,24.86-32.44,38.63-39.52,43.66-9.53,6.76-12.09,7.79-21.95,11.31,0,0,21,10.33,55.38,14.98,34.12,4.62,65.19-2.81,65.19-2.81-3.67-7.47-7.33-17.19-9.09-28.88-5.23-34.83,10.36-61.32,16.52-71.19M361.3,352.69c8.25,7.88,21.33,7.57,29.2-.68,7.88-8.25,7.57-21.33-.68-29.2-8.25-7.88-21.33-7.57-29.2.68-7.88,8.25-7.57,21.33.68,29.2ZM411.83,415.84c7.74,11.02,10.35,24.02,11.14,28.23,2,10.67,1.17,19.65.19,25.35,0,0,7.43-12.87,17.32-31.29,8.16-15.2,15.55-34.59,15.55-34.59,0,0-23.51-59.5-30.27-79.72-.66-1.97-1.23-3.95-1.94-5.86-5.89-16.11-17.36-29.7-32.4-37.94-4.61-2.52-9.62-4.6-14.4-5.19-1.73-.21-2.75,1.88-1.47,3.06,5.49,5.1,16.16,15.57,21.38,24.42,11.88,20.16,13.82,38.4.02,53.99-14.93,14.51-33.24,13.42-53.93,2.48-9.09-4.81-20.04-14.98-25.39-20.23-1.24-1.22-3.28-.11-2.99,1.61.81,4.75,3.12,9.66,5.85,14.15,3.85,6.32,6.25,9.18,9.99,12.88,10.01,9.88,22.03,14.59,29.41,17.73,25.23,10.74,40.49,14.65,51.92,30.92Z"/>
    <path class="cls-2" d="M461.85,122.03s21.17,16.56,21.07,36.36c-.08,15.53-14.06,28-19.4,32.2.1-5.47.28-24.21-1.86-33.02-2.23,8.72-2.26,27.49-2.22,32.99-5.3-4.26-19.14-16.88-19.05-32.4.11-19.8,21.47-36.13,21.47-36.13ZM586.35,165.29s6.49,26.09-5.78,41.62c-9.63,12.19-28.32,13.4-35.11,13.43,3.45-4.25,15.13-18.91,18.87-27.17-7.13,5.5-18.71,20.27-22.06,24.63-1.56-6.62-4.69-25.08,4.93-37.26,12.27-15.53,39.16-15.26,39.16-15.26ZM651.79,256.22s-4.88,26.44-22.47,35.51c-13.8,7.12-31.33.5-37.52-2.28,4.9-2.45,21.59-10.96,28.41-16.94-8.76,2.06-25.42,10.72-30.27,13.31,1.32-6.67,6.1-24.78,19.89-31.89,17.6-9.07,41.96,2.3,41.96,2.3ZM313.85,253.92c13.79,7.11,18.57,25.22,19.89,31.89-4.86-2.58-21.51-11.25-30.27-13.31,6.82,5.98,23.51,14.49,28.41,16.94-6.2,2.78-23.72,9.4-37.52,2.28-17.6-9.07-22.47-35.51-22.47-35.51,0,0,24.37-11.37,41.96-2.3ZM337.24,164.31s26.88.02,38.99,15.68c9.5,12.29,6.16,30.72,4.54,37.32-3.29-4.38-14.69-19.25-21.8-24.88,3.61,8.24,15.14,23.06,18.56,27.37-6.8-.09-25.47-1.52-34.96-13.8-12.1-15.66-5.33-41.69-5.33-41.69Z"/>
  </g>
</svg>